<?xml version="1.0" encoding="UTF-8" standalone="no"?>
<!-- Uploaded to: SVG Repo, www.svgrepo.com, Generator: SVG Repo Mixer Tools -->

<svg
   version="1.1"
   id="Uploaded to svgrepo.com"
   width="800px"
   height="800px"
   viewBox="0 0 32 32"
   xml:space="preserve"
   sodipodi:docname="icon.svg"
   inkscape:version="1.1.2 (0a00cf5339, 2022-02-04)"
   xmlns:inkscape="http://www.inkscape.org/namespaces/inkscape"
   xmlns:sodipodi="http://sodipodi.sourceforge.net/DTD/sodipodi-0.dtd"
   xmlns="http://www.w3.org/2000/svg"
   xmlns:svg="http://www.w3.org/2000/svg"><defs
   id="defs9" /><sodipodi:namedview
   id="namedview7"
   pagecolor="#ffffff"
   bordercolor="#666666"
   borderopacity="1.0"
   inkscape:pageshadow="2"
   inkscape:pageopacity="0.0"
   inkscape:pagecheckerboard="0"
   showgrid="false"
   inkscape:zoom="1.09125"
   inkscape:cx="400"
   inkscape:cy="400"
   inkscape:window-width="3840"
   inkscape:window-height="2092"
   inkscape:window-x="0"
   inkscape:window-y="0"
   inkscape:window-maximized="1"
   inkscape:current-layer="Uploaded to svgrepo.com" />
<style
   type="text/css"
   id="style2"><![CDATA[
.feather_een {
  fill:#000000;
}
]]></style>
<path
   class="feather_een"
   d="m 23.144531,19.621845 v -8.793269 c 0,-0.9106536 -0.738084,-1.6487386 -1.648738,-1.6487386 H 10.504207 c -0.9106535,0 -1.6487386,0.738085 -1.6487386,1.6487386 v 8.793269 c -0.6072852,0 -1.0991588,0.491873 -1.0991588,1.099159 0,0.607285 0.4918736,1.099158 1.0991588,1.099158 H 23.144531 c 0.607286,0 1.099159,-0.491873 1.099159,-1.099158 0,-0.607286 -0.491873,-1.099159 -1.099159,-1.099159 z M 9.4050477,10.828576 c 0,-0.606187 0.4929727,-1.0991592 1.0991593,-1.0991592 h 10.991586 c 0.606187,0 1.099159,0.4929722 1.099159,1.0991592 v 8.793269 H 9.4050477 Z M 23.144531,21.270583 H 8.8554684 c -0.3028183,0 -0.5495794,-0.24676 -0.5495794,-0.549579 0,-0.302818 0.2467611,-0.54958 0.5495794,-0.54958 h 5.4957936 c 0,0.303368 0.246212,0.54958 0.549579,0.54958 h 2.198318 c 0.303367,0 0.549579,-0.246212 0.549579,-0.54958 h 5.495793 c 0.302819,0 0.54958,0.246762 0.54958,0.54958 0,0.302819 -0.246761,0.549579 -0.54958,0.549579 z M 21.495793,10.278996 H 10.504207 c -0.303368,0 -0.5495799,0.246212 -0.5495799,0.54958 v 7.69411 c 0,0.303368 0.2462119,0.54958 0.5495799,0.54958 h 10.991586 c 0.303368,0 0.54958,-0.246212 0.54958,-0.54958 v -7.69411 c 0,-0.303368 -0.246212,-0.54958 -0.54958,-0.54958 z m -7.535832,6.018443 0.254456,-0.126952 c 0.20939,0.09673 0.440762,0.153882 0.686424,0.153882 0.245662,0 0.477035,-0.05716 0.686425,-0.153882 l 0.254455,0.126952 c 0.44406,0.308314 0.707858,0.812279 0.707858,1.354164 v 0.871083 h -3.297476 v -0.871083 c 0,-0.541885 0.263798,-1.04585 0.707858,-1.354164 z m -0.158278,-1.621808 c 0,-0.606186 0.492973,-1.099159 1.099158,-1.099159 0.606186,0 1.099159,0.492973 1.099159,1.099159 0,0.606186 -0.492973,1.099159 -1.099159,1.099159 -0.606185,0 -1.099158,-0.492973 -1.099158,-1.099159 z m 7.69411,3.847055 h -4.396634 v -1.087067 c 0,-0.689173 -0.389652,-1.318442 -1.005731,-1.626206 0.351182,-0.369317 0.53694,-0.898562 0.422077,-1.470674 -0.129701,-0.647955 -0.667739,-1.172803 -1.31844,-1.286016 -1.040904,-0.181361 -1.944962,0.615529 -1.944962,1.622908 0,0.440213 0.175316,0.837559 0.456151,1.133233 -0.616628,0.307764 -1.00573,0.937582 -1.00573,1.626205 v 1.087617 h -2.198317 v -7.69411 h 10.991586 z m -3.297476,-4.396634 h 2.198318 c 0.303367,0 0.549579,-0.246212 0.549579,-0.54958 v -1.648738 c 0,-0.303367 -0.246212,-0.549579 -0.549579,-0.549579 h -2.198318 c -0.303367,0 -0.549579,0.246212 -0.549579,0.549579 v 1.648738 c 0,0.303368 0.246212,0.54958 0.549579,0.54958 z m 0,-2.198318 h 2.198318 v 1.648738 h -2.198318 z"
   id="path4"
   style="stroke-width:0.549579" />
</svg>
